<svg xmlns="http://www.w3.org/2000/svg" width="128" height="128" viewBox="0 0 128 128" fill="none" role="img" aria-labelledby="title desc">
  <title id="title">Consistency Icon</title><desc id="desc">Gold fitness medal, 12 weeks.</desc>
  <defs>
    <linearGradient id="metal" x1="20" y1="8" x2="110" y2="118" gradientUnits="userSpaceOnUse"><stop stop-color="#FFF4BD"/><stop offset=".33" stop-color="#DEB83F"/><stop offset=".54" stop-color="#FFF4BD"/><stop offset="1" stop-color="#91681F"/></linearGradient>
    <linearGradient id="enamel" x1="38" y1="16" x2="87" y2="104" gradientUnits="userSpaceOnUse"><stop stop-color="#294638"/><stop offset=".55" stop-color="#183326"/><stop offset="1" stop-color="#0D231B"/></linearGradient>
    <linearGradient id="lime" x1="43" y1="28" x2="80" y2="82" gradientUnits="userSpaceOnUse"><stop stop-color="#EDFFB2"/><stop offset=".45" stop-color="#D8FF55"/><stop offset="1" stop-color="#A8D62D"/></linearGradient>
    <linearGradient id="ribbon" x1="30" y1="87" x2="99" y2="112" gradientUnits="userSpaceOnUse"><stop stop-color="#FFF4BD"/><stop offset=".45" stop-color="#DEB83F"/><stop offset="1" stop-color="#FFF0A0"/></linearGradient>
  </defs>
  <g fill="#0B1D17" opacity=".15" transform="translate(0 2)"><circle cx="64" cy="60" r="53"/></g>
  <g fill="url(#metal)" stroke="#91681F" stroke-width="1.2"><circle cx="64" cy="60" r="53"/></g>
  <g fill="url(#enamel)" stroke="#FFF0A0" stroke-opacity=".6" stroke-width="1.2" transform="translate(64 61) scale(.86) translate(-64 -61)"><circle cx="64" cy="60" r="53"/></g>
  <path d="M35 27Q64 13 93 27" stroke="#FFF4BD" stroke-opacity=".35" stroke-width="1.4" stroke-linecap="round"/>
  <path d="m27 78 2 3m72-3-2 3" stroke="#FFF0A0" stroke-width="2" stroke-linecap="round"/>
  <g fill="url(#metal)" opacity=".96"><path d="M20 80C8 76 6 64 9 57c9 5 13 13 11 23Zm-4-25C6 49 5 39 9 32c8 7 11 15 7 23Zm5-21C14 26 15 17 21 11c6 9 7 17 0 23Zm5 64c-11 0-18-8-18-16 10 0 17 5 18 16Zm82-18c12-4 14-16 11-23-9 5-13 13-11 23Zm4-25c10-6 11-16 7-23-8 7-11 15-7 23Zm-5-21c7-8 6-17 0-23-6 9-7 17 0 23Zm-5 64c11 0 18-8 18-16-10 0-17 5-18 16Z"/></g>
  <rect x="36" y="29" width="56" height="50" rx="7" fill="#203F31" stroke="url(#metal)" stroke-width="3"/><path d="M37 42h54M49 25v9m30-9v9" stroke="url(#metal)" stroke-width="4" stroke-linecap="round"/><path d="M67 44c3 9-6 9-3 16 4-2 5-5 5-8 9 7 11 13 6 20-5 7-17 6-21 0-5-8 2-15 5-18 0 5 1 6 3 7 4-5 5-11 5-17Z" fill="url(#lime)"/><path d="M64 63c0 5-5 6-3 10 2 3 7 2 8-1 1-3-1-4-2-6 0 3-2 3-3 3Z" fill="#34562E"/>
  <path d="m25 89-12 3 6 8-5 9 19-4m70-16 12 3-6 8 5 9-19-4" fill="#91681F" stroke="#DEB83F" stroke-width="1"/>
  <path d="M27 87Q64 82 101 87v24q-37-5-74 0Z" fill="url(#ribbon)" stroke="#91681F" stroke-width="1.2"/>
  <path d="M30 89q34-4 68 0" stroke="#FFF4BD" stroke-opacity=".8" stroke-width="1"/>
  <text x="64" y="104" text-anchor="middle" font-family="Arial,Helvetica,sans-serif" font-weight="900" font-size="22" letter-spacing="-.8" fill="#24372A">12</text>
  <text x="64" y="118" text-anchor="middle" font-family="Arial,Helvetica,sans-serif" font-weight="800" font-size="5.1" letter-spacing=".75" fill="#91681F">WEEKS</text>
</svg>
